<svg width="96" height="77" viewBox="0 0 96 77" fill="none" xmlns="http://www.w3.org/2000/svg">
<path fill-rule="evenodd" clip-rule="evenodd" d="M12.7297 15.9487C12.7314 15.0412 12.8652 14.3528 12.0161 14.103C11.1272 13.8416 10.9594 14.5267 10.6637 15.0896C10.5175 15.3675 10.392 15.7594 9.95871 15.7072C9.51013 15.6538 9.36268 15.3178 9.29848 14.9123C9.25913 14.6642 9.29268 14.3345 8.97789 14.2484C8.61215 14.1486 8.46717 14.4749 8.28244 14.7052C6.72049 16.6507 5.48327 18.7967 4.47386 21.0674C3.84966 22.4723 3.29297 23.9208 3.12564 25.4695C2.8941 27.6151 4.51942 28.8067 6.50138 27.9559C7.67274 27.4531 8.61463 26.6359 9.31215 25.5925C11.3181 22.592 12.2571 19.2101 12.7297 15.9487ZM16.1287 15.0461C15.8105 20.6146 14.3608 25.8427 11.3815 30.6027C10.5924 31.8631 9.47658 32.817 8.27664 33.6674C7.53605 34.1926 6.68114 33.9192 5.86848 33.9639C5.61913 33.9776 4.89138 33.2652 5.0554 34.3359C5.06534 34.4026 4.64368 34.3438 4.44321 34.2522C3.11362 33.6433 2.01889 32.8004 1.35203 31.4357C-0.550813 27.5409 -0.347026 23.6586 1.34996 19.7767C2.83859 16.372 4.73564 13.2584 7.57581 10.7695C9.01185 9.51115 10.807 9.24855 12.5168 8.87867C13.962 8.56595 15.4179 9.9324 15.7932 11.5594C16.0566 12.7013 16.0997 13.8681 16.1287 15.0461Z" fill="black"/>
<path fill-rule="evenodd" clip-rule="evenodd" d="M85.1975 9.9573C84.3509 12.7279 84.442 15.2462 85.7339 17.6457C86.6903 19.4222 87.9706 19.5042 89.2741 17.9365C90.2268 16.7908 90.7888 15.4363 91.232 14.0289C91.8976 11.9156 91.1405 10.4597 89.0744 9.70091C88.2436 9.39564 87.7635 9.59239 87.6044 10.4299C87.4669 11.1548 87.1956 11.8287 86.3983 11.7947C85.5069 11.7562 85.5744 10.8731 85.4021 10.2452C85.393 10.2116 85.3603 10.1839 85.1975 9.9573ZM81.7708 15.6932C81.7066 11.243 82.8966 7.66469 85.2174 4.45132C85.726 3.74594 86.2976 3.0886 87.0511 2.63381C88.1089 1.99469 89.2757 2.34179 89.5992 3.4999C89.7807 4.15102 90.0988 4.28895 90.6683 4.3867C93.2322 4.82659 95.1752 6.69339 95.2556 9.24694C95.4225 14.5384 93.7765 19.3182 90.163 23.1981C87.5382 26.0159 84.6603 25.3453 83.0097 21.8237C82.0305 19.7341 81.7729 17.4991 81.7708 15.6932Z" fill="black"/>
<path fill-rule="evenodd" clip-rule="evenodd" d="M56.2746 24.7511C56.3272 25.6515 56.5322 26.6904 57.4878 27.1472C58.3651 27.5668 59.0576 26.7981 59.6168 26.2198C61.9185 23.8411 63.3496 20.9723 64.1494 17.7821C64.3573 16.9541 63.8416 16.5482 63.1168 16.3043C62.4309 16.0731 61.9815 16.197 61.7019 16.9347C61.5229 17.4065 61.2695 17.9776 60.6076 17.884C60.031 17.8024 60.1482 17.1969 59.9829 16.8137C59.8989 16.6195 59.9668 16.3237 59.6822 16.2769C59.43 16.2355 59.2519 16.4513 59.1562 16.6365C57.8444 19.1739 56.555 21.7216 56.2746 24.7511ZM67.8689 16.1257C67.6788 20.1882 66.1417 23.8564 64.4737 27.4823C63.4846 29.6316 62.2316 31.5365 60.0451 32.7104C58.1211 33.7434 56.3342 33.395 55.2681 31.4425C53.591 28.3699 52.9332 25.1123 53.9696 21.6628C54.8738 18.6524 56.2551 15.8946 58.3444 13.513C58.6641 13.1489 59.0709 12.7757 59.4697 12.8863C60.3371 13.1265 60.668 12.5106 60.9729 12.0289C61.7984 10.7221 62.9983 10.4094 64.3776 10.6459C65.9015 10.9072 67.1238 11.6449 67.644 13.2251C67.9559 14.172 68.0089 15.1387 67.8689 16.1257Z" fill="black"/>
<path fill-rule="evenodd" clip-rule="evenodd" d="M82.9069 37.4345C82.5714 37.768 82.5557 38.1163 82.4915 38.4444C82.4186 38.8159 82.1518 39.0259 81.8494 38.847C81.1043 38.405 80.7444 38.9381 80.3343 39.3573C79.2275 40.4876 78.2297 41.7339 77.4887 43.1099C76.6852 44.601 75.8344 46.141 76.0519 47.971C76.1869 49.1088 76.2921 50.3584 77.5533 50.735C78.8457 51.1206 79.8223 50.2752 80.6694 49.3722C80.7203 49.318 80.7535 49.2476 80.8015 49.19C82.6484 46.9595 83.4731 44.2552 84.1346 41.5322C84.4912 40.0631 84.0969 38.5823 82.9069 37.4345ZM87.792 38.6096C87.7125 42.1154 86.5498 45.3218 85.2405 48.526C84.3371 50.7374 83.1277 52.6929 81.5835 54.4797C80.2316 56.0434 77.4622 56.668 75.561 55.5513C74.849 55.1329 74.7227 54.2076 73.9452 53.8928C74.849 52.9108 73.4846 52.5007 73.4035 51.7535C73.0725 48.7219 73.167 45.8076 74.5897 42.9621C75.9823 40.1757 77.8044 37.8297 80.2838 35.9782C80.5596 35.7719 80.6317 35.5441 80.6623 35.2235C80.705 34.7803 80.7634 34.3173 80.932 33.9113C81.9008 31.5757 83.5216 31.195 85.4124 32.8721C87.1247 34.391 87.8541 36.3439 87.792 38.6096Z" fill="black"/>
<path fill-rule="evenodd" clip-rule="evenodd" d="M23.0358 40.7676C23.0814 41.3433 22.989 42.004 23.5759 42.2918C24.1227 42.5598 24.5605 42.074 24.9685 41.7612C25.5397 41.323 26.0085 40.7746 26.3892 40.1674C27.9027 37.7522 28.9001 35.1415 29.3375 32.3166C29.4481 31.6001 29.4626 30.712 28.7576 30.577C28.0129 30.4345 26.9438 30.2605 26.4882 31.3756C26.3614 31.6862 26.2028 31.9956 26.0011 32.2624C24.0987 34.7857 23.6617 37.8077 23.0358 40.7676ZM32.2584 31.7968C32.0111 35.6924 30.863 39.6119 28.7555 43.2482C28.4921 43.7018 28.1727 44.1226 27.9085 44.5757C26.8394 46.4077 25.152 47.1322 23.1323 47.1819C22.4348 47.1989 22.0459 46.6463 21.7311 46.0648C20.592 43.9602 20.3017 41.7136 20.7668 39.4048C21.6888 34.8304 23.404 30.5666 25.9907 26.6648C26.453 25.9669 27.0469 25.3945 27.6554 24.8465C28.343 24.2277 28.9282 24.4617 29.161 25.3713C29.2406 25.6832 29.2178 26.0452 29.6527 26.1645C31.3874 26.6408 31.6189 28.2115 32.0493 29.5908C32.2344 30.1856 32.1785 30.8553 32.2584 31.7968Z" fill="black"/>
<path fill-rule="evenodd" clip-rule="evenodd" d="M39.5585 58.9182C40.4822 58.0973 40.7978 57.1044 41.2915 56.1957C42.1986 54.5239 42.6091 52.7487 42.8589 50.9063C42.9003 50.5998 42.8833 50.2717 42.5201 50.1636C42.1651 50.058 41.9804 50.3533 41.8221 50.5894C41.6788 50.804 41.6681 51.195 41.4887 51.282C40.8827 51.5769 41.2936 53.0655 39.9976 52.5341C39.8319 52.4666 39.6778 52.7657 39.875 52.9119C40.7357 53.5485 40.1869 54.246 39.952 54.8893C39.4918 56.1513 39.1613 57.4097 39.5585 58.9182ZM38.663 63.9748C39.899 63.397 39.392 62.7976 38.6763 62.5251C37.0406 61.9013 36.9383 60.3957 36.6384 59.0897C36.4466 58.2546 36.6082 57.2775 36.8273 56.4193C37.8185 52.5349 39.6037 48.9948 41.7513 45.6348C42.1046 45.0814 42.7267 44.7206 43.0809 44.1283C43.2341 43.8728 43.5307 43.7075 43.8637 43.8202C44.1926 43.9316 44.2887 44.1639 44.2523 44.5251C44.1847 45.1986 44.478 45.7068 44.9734 46.1944C46.3378 47.5355 46.2102 49.3377 46.066 50.9829C45.6986 55.1842 44.2821 59.0781 41.9886 62.6174C41.2903 63.6956 40.3161 64.5232 38.663 63.9748Z" fill="black"/>
<path fill-rule="evenodd" clip-rule="evenodd" d="M36.105 8.71813C36.0168 8.41162 35.9286 8.1047 35.8002 7.65736C34.8177 8.90121 34.1562 10.1906 33.7552 11.5943C33.4897 12.5242 34.2146 13.3286 35.1863 13.2772C36.1655 13.2259 36.8899 12.6824 37.4147 11.9104C38.799 9.87334 39.4157 7.52523 39.7711 5.15186C39.8767 4.4444 39.7922 3.48718 39.3523 2.70641C38.9721 2.03251 39.7413 0.333869 40.5353 0.0783071C41.5294 -0.24187 42.0012 0.476769 42.3396 1.20162C43.0068 2.62937 42.7736 4.1789 42.637 5.64848C42.3271 8.97162 41.3273 12.1129 39.612 14.9991C38.8487 16.2839 37.9726 17.4648 36.3465 17.6984C33.5759 18.0956 32.4397 17.8045 31.7199 15.021C30.7709 11.3533 32.7827 6.26482 35.9099 4.06499C36.2562 3.82103 36.6062 3.61517 37.0564 3.78955C37.57 3.98795 37.4955 4.45973 37.5129 4.84576C37.5775 6.28304 36.9338 7.50825 36.3891 8.75914C36.2943 8.74547 36.1999 8.7318 36.105 8.71813Z" fill="black"/>
<path fill-rule="evenodd" clip-rule="evenodd" d="M55.2711 76.9357C54.3843 77.0123 53.7357 76.6643 53.6963 75.8177C53.6276 74.322 53.2946 72.9278 53.7303 71.2905C54.4634 68.5357 55.5896 66.0571 57.1383 63.7529C57.8222 62.736 57.5434 61.6057 57.975 60.5892C58.3346 59.7426 58.7579 58.9701 59.4235 58.3372C59.8547 57.9271 60.3136 57.6198 60.9283 57.9731C61.5053 58.3045 61.7463 58.669 61.7824 59.4671C62.0077 64.4607 60.1173 68.9126 58.4335 73.4274C58.0608 74.4256 57.466 75.2851 56.8459 76.14C56.4296 76.7132 55.9264 77.0048 55.2711 76.9357Z" fill="black"/>
</svg>
