<svg width="653" height="176" viewBox="0 0 653 176" fill="none" xmlns="http://www.w3.org/2000/svg">
<path fill-rule="evenodd" clip-rule="evenodd" d="M0 19L12 22C24 26 48 32 73 42C97 52 121 65 145 65C169 65 193 52 218 42C242 32 266 26 290 22C314 19 339 19 363 26C387 32 411 45 435 62C460 78 484 98 508 88C532 78 556 39 580 19C605 0 629 0 641 0H653V176H641C629 176 605 176 580 176C556 176 532 176 508 176C484 176 460 176 435 176C411 176 387 176 363 176C339 176 314 176 290 176C266 176 242 176 218 176C193 176 169 176 145 176C121 176 97 176 73 176C48 176 24 176 12 176H0V19Z" fill="#3734A9"/>
</svg>
